<svg xmlns="http://www.w3.org/2000/svg" width="546.9" height="208.6" viewBox="0 0 546.9 208.6"><g id="Layer_2" data-name="Layer 2"><g id="Layer_1-2" data-name="Layer 1"><rect x="81.8" y="64" width="368" height="81" rx="2" fill="#d6cbc6"/><rect x="81.8" y="136" width="368" height="9" rx="0.7" fill="#efe5e1"/><ellipse cx="70.5" cy="58.6" rx="52.1" ry="65.1" transform="translate(-20.5 69.6) rotate(-46.6)" fill="#d6cbc6"/><ellipse cx="64.2" cy="132" rx="64.8" ry="52.1" transform="translate(-28 17.8) rotate(-13)" fill="#d6cbc6"/><path d="M1.1,146.5c6.4,28,39.9,44.3,74.8,36.2s57.9-37.2,51.5-65.2C128.8,180,46.8,192,1.1,146.5Z" fill="#efe5e1"/><ellipse cx="479.2" cy="66" rx="70" ry="56" transform="translate(16.6 207.5) rotate(-24.9)" fill="#d6cbc6"/><ellipse cx="474.9" cy="147" rx="56" ry="69.7" transform="translate(66.1 429.8) rotate(-51.9)" fill="#d6cbc6"/><path d="M529.7,190c-19.1,24.4-59.1,24.8-89.4,1.1S411.8,144,411.8,144C441.8,202,506.4,212.8,529.7,190Z" fill="#efe5e1"/></g></g></svg>