<svg xmlns="http://www.w3.org/2000/svg" width="247.7" height="127.1" viewBox="0 0 247.7 127.1"><g id="Layer_2" data-name="Layer 2"><g id="Layer_1-2" data-name="Layer 1"><g id="Layer_2-2" data-name="Layer 2"><g id="Layer_1-2-2" data-name="Layer 1-2"><path d="M195,73.7c-2,14.1-7.5,25-12,24.3s-6.7-12.7-4.6-26.9" fill="#866356"/><path d="M212.5,66.9c3.7,14,3,26.4-1.5,27.7s-11.1-9-14.7-23" fill="#866356"/><path d="M78.3,70.2c-5,13.2-12.5,22.6-16.8,21s-3.9-13.6,1-26.9" fill="#866356"/><path d="M208.2,44.9s13.4.7,26.1-19.8S247.7,0,247.7,0s-9.6,52.6-39,51.7" fill="#866356"/><path d="M93.3,72.3C91.3,85.6,86,95.7,81.4,95s-6.7-12-4.7-25.2" fill="#866356"/><path d="M217.6,51.1c2.1,26.1-31.4,36-81.6,34s-82.6-16.4-78.3-25c15.2-30.2,8.2-15.4,79.6-15.2C187.2,45.2,215.6,27.3,217.6,51.1Z" fill="#d6cbc6"/><path d="M73.8,36.1c.3,19.6-11.1,17.7-24.3,17.4S25.5,45,25.8,35.1,36.9,17.4,50.2,17.7,73.7,26.2,73.8,36.1Z" fill="#d6cbc6"/><path d="M53.8,38.9c-.1,5.7,2.1,14.2-12.3,13.9-7.7-.2-29.4-2-34-4.2S1.3,40.4,1.4,37.7c.1-5.6,12.1-8.1,26.6-7.8S53.9,33.2,53.8,38.9Z" fill="#d6cbc6"/><path d="M66.3,51.4c-1.5,6.9-7,15.3-10.2,15.7C46.6,68.2,29.6,68.8,38.3,56,50.1,38.8,60.1,20,63.7,21.1S70.4,32.4,66.3,51.4Z" fill="#866356"/><path d="M9.1,36.2c0,2.2-.8,3.5-3.8,3.8C-.6,40.6,0,38.1,0,35.8s2.5-3.9,5.5-3.9S9.2,34,9.1,36.2Z" fill="#8a7f97"/><ellipse cx="38.1" cy="30.4" rx="3.3" ry="2.2" transform="translate(-3.9 55) rotate(-68.9)"/><path d="M37.5,126.8a3.1,3.1,0,0,1-1.3-.3,2,2,0,0,1-.9-.9l-6.6-21.4v-.3a1.1,1.1,0,0,1,.3-.7,2,2,0,0,1,.9-.5l1-.2.8.2a.7.7,0,0,1,.4.6L37.5,122l3-11.8a1.1,1.1,0,0,1,.7-.8l1-.2,1.2.2a1.6,1.6,0,0,1,.6.8L46.9,122l5.5-18.7c.1-.3.2-.5.5-.6l.7-.2,1,.2a2,2,0,0,1,.9.5.7.7,0,0,1,.2.7v.3l-6.5,21.4a1.2,1.2,0,0,1-.9.9,3.2,3.2,0,0,1-1.4.3,3.1,3.1,0,0,1-1.3-.3,1.4,1.4,0,0,1-.8-.9l-2.6-10-2.5,10a1.2,1.2,0,0,1-.8.9A3.2,3.2,0,0,1,37.5,126.8Z" fill="#866356"/><path d="M59.8,106.9a2.4,2.4,0,0,1-1.4-.5,1.7,1.7,0,0,1,0-2.6,2.4,2.4,0,0,1,2.8,0,1.7,1.7,0,0,1,0,2.6A2.4,2.4,0,0,1,59.8,106.9Zm0,19.8a1.4,1.4,0,0,1-1.2-.4c-.3-.1-.5-.4-.9-.8V112l.9-.8a2.7,2.7,0,0,1,1.2-.3,2.8,2.8,0,0,1,1.3.3,1.6,1.6,0,0,1,.6.8v13.5a1,1,0,0,1-.6.8A2,2,0,0,1,59.8,126.7Z" fill="#866356"/><path d="M72.4,127a8.4,8.4,0,0,1-6.8-3.2,5.9,5.9,0,0,1-.9-3.5v-3.1a4.9,4.9,0,0,1,.9-3.3,6.1,6.1,0,0,1,2.5-2.3,7.2,7.2,0,0,1,6.8-.1,6.4,6.4,0,0,1,2.4,2.2,6.2,6.2,0,0,1,.9,3.2,4.5,4.5,0,0,1-.4,2,6.5,6.5,0,0,1-1.2,1.1H68.7v.4a1.9,1.9,0,0,0,.6,2.6,4.7,4.7,0,0,0,3.2,1,5.8,5.8,0,0,0,1.9-.3l1.2-.6.9-.3.8.2a2.5,2.5,0,0,1,.4.7,1.4,1.4,0,0,1,.2.6c0,.4-.2.7-.7,1.1a3.5,3.5,0,0,1-1.9,1A7.2,7.2,0,0,1,72.4,127Zm-4.7-9h5.6l.9-.2a.7.7,0,0,0,.3-.8,3.3,3.3,0,0,0-.4-1.7,3.2,3.2,0,0,0-1.2-1.1,3.4,3.4,0,0,0-1.8-.4,3.8,3.8,0,0,0-1.7.4,2.5,2.5,0,0,0-1.2,1.1,3,3,0,0,0-.5,1.6Z" fill="#866356"/><path d="M82.8,126.7a2,2,0,0,1-1.3-.4c-.3-.2.2-.8.2-.8V112a1.2,1.2,0,0,1,.4-.8l1.2-.2,1,.2a.9.9,0,0,1,.4.8v1.2a4.1,4.1,0,0,1,1.6-1.6,5.4,5.4,0,0,1,2.8-.8,4.7,4.7,0,0,1,2.8.9,5.6,5.6,0,0,1,2.1,2.2,6.5,6.5,0,0,1,.7,3.4v8.2a2.7,2.7,0,0,1-.6.9,2.5,2.5,0,0,1-2.4,0,4.7,4.7,0,0,1-1-.9v-8.3a2.9,2.9,0,0,0-.3-1.6,4.3,4.3,0,0,0-1.1-1.2,2.9,2.9,0,0,0-1.6-.4,2.7,2.7,0,0,0-1.5.3,5.7,5.7,0,0,0-1.1,1.1,3.9,3.9,0,0,0-.4,1.8v8.3s-.3.7-.7.8A1.3,1.3,0,0,1,82.8,126.7Z" fill="#866356"/><path d="M105.3,127a7.1,7.1,0,0,1-4-.9,7,7,0,0,1-2.8-2.3,5.2,5.2,0,0,1-.8-3.5v-3.1a4.9,4.9,0,0,1,.8-3.3,7.9,7.9,0,0,1,2.5-2.3,7.2,7.2,0,0,1,6.8-.1,6.4,6.4,0,0,1,2.4,2.2,6.2,6.2,0,0,1,.9,3.2,3.4,3.4,0,0,1-.4,2,6.5,6.5,0,0,1-1.2,1.1h-7.8v.4a1.7,1.7,0,0,0,.6,2.6,4.5,4.5,0,0,0,3.1,1,5.8,5.8,0,0,0,1.9-.3l1.2-.6a1.6,1.6,0,0,1,.9-.3l.8.2a2.5,2.5,0,0,1,.4.7.7.7,0,0,1,.2.6c0,.4-.2.7-.7,1.1a3.5,3.5,0,0,1-1.9,1A7.2,7.2,0,0,1,105.3,127Zm-4.6-9h5.6l1-.2a.8.8,0,0,0,.2-.8,2.5,2.5,0,0,0-.4-1.7,3.2,3.2,0,0,0-1.2-1.1,3.4,3.4,0,0,0-1.8-.4,3.8,3.8,0,0,0-1.7.4,2.5,2.5,0,0,0-1.2,1.1,3,3,0,0,0-.5,1.6Z" fill="#866356"/><path d="M115.7,126.7a1.4,1.4,0,0,1-1.2-.4c-.3-.1-.8-.8-.8-.8V112.3a.9.9,0,0,1,.5-.8,2,2,0,0,1,1.1-.3,1.9,1.9,0,0,1,1,.3.9.9,0,0,1,.4.8v1.5a3.2,3.2,0,0,1,1-1.3,4.3,4.3,0,0,1,1.2-1.1,3.3,3.3,0,0,1,1.7-.4h2s.7-.1.9.1a1.6,1.6,0,0,1,0,2.2,2.2,2.2,0,0,1-.9.7h-1.1a2.2,2.2,0,0,0-1.9.4,4.1,4.1,0,0,0-1.5,1.7,3.9,3.9,0,0,0-.4,2.6v6.8c-.2.4-.4.7-.7.8A2,2,0,0,1,115.7,126.7Z" fill="#866356"/><path d="M146.1,126.8a1.1,1.1,0,0,1-.8-.3l-.6-.7-4.9-9.8h-3.1v9.5c-.2.4-.4.8-.8.9a2.4,2.4,0,0,1-1.2.3l-1.2-.3a1.8,1.8,0,0,1-.8-.9v-22l.6-.8.8-.7h6.4c1.3.3,2.6.5,3.8.9a5.4,5.4,0,0,1,2.8,2.1,6.8,6.8,0,0,1,1,4.1,7.9,7.9,0,0,1-.6,3.4,5.8,5.8,0,0,1-1.7,2.1,7,7,0,0,1-2.3,1.1l4.6,8.8c.1.1.1.1.1.2v.3a1.2,1.2,0,0,1-.4.8,1.8,1.8,0,0,1-.8.7A1.7,1.7,0,0,1,146.1,126.8ZM136.7,113h4.1a5.1,5.1,0,0,0,3-.9,3.5,3.5,0,0,0,1.1-3.2,3.8,3.8,0,0,0-1.1-3,5.1,5.1,0,0,0-3-.9h-4.1Z" fill="#866356"/><path d="M157.8,127a9.3,9.3,0,0,1-4-.9,6.7,6.7,0,0,1-2.7-2.3,3.4,3.4,0,0,1-.4-3.5v-3.1a3.3,3.3,0,0,1,.3-3.3,9.6,9.6,0,0,1,2.6-2.3,6.7,6.7,0,0,1,3.4-.9,7.3,7.3,0,0,1,3.3.8,6.4,6.4,0,0,1,2.4,2.2,5.3,5.3,0,0,1,1,3.2,2.9,2.9,0,0,1-.5,2,3.8,3.8,0,0,1-1.1,1.1h-8.4v.4a2.9,2.9,0,0,0,1.1,2.6,4.5,4.5,0,0,0,3.1,1,5.8,5.8,0,0,0,1.9-.3l1.3-.6a1.6,1.6,0,0,1,.9-.3l.7.2.5.7a1.4,1.4,0,0,1,.2.6c0,.4-.3.7-.7,1.1a4.4,4.4,0,0,1-1.9,1A7.7,7.7,0,0,1,157.8,127Zm-4.1-9h5.5l1-.2a.7.7,0,0,0,.3-.8,2.6,2.6,0,0,0-.5-1.7,3.2,3.2,0,0,0-1.2-1.1,4,4,0,0,0-3.4,0,2.5,2.5,0,0,0-1.2,1.1,2.8,2.8,0,0,0-.5,1.6Z" fill="#866356"/><path d="M171.4,127a10.3,10.3,0,0,1-3-.4,5.6,5.6,0,0,1-2-1.1,1.7,1.7,0,0,1-.8-1.2,1.9,1.9,0,0,1,.2-.7l.4-.6c.2-.1.4-.3.6-.3a2.5,2.5,0,0,1,.9.4l1.3.8a6.2,6.2,0,0,0,2.3.4,2.9,2.9,0,0,0,2.2-.6,1.4,1.4,0,0,0,.6-1.2,2,2,0,0,0-.6-1.4,5.3,5.3,0,0,0-1.5-.8l-1.9-.6a4.8,4.8,0,0,1-2-.7,3.7,3.7,0,0,1-1.5-1.3,4,4,0,0,1-.6-2.2,4.6,4.6,0,0,1,.6-2.3,7.7,7.7,0,0,1,1.8-1.8,8,8,0,0,1,3.4-.7,9.9,9.9,0,0,1,2.4.3,4.8,4.8,0,0,1,1.8.7c.5.3.8.6.8,1l-.2.6a1.8,1.8,0,0,1-.5.7.6.6,0,0,1-.7.4l-.8-.3-1.2-.5-1.6-.2a4.5,4.5,0,0,0-1.6.3,3,3,0,0,0-.8.8,1.1,1.1,0,0,0-.3.8,1.3,1.3,0,0,0,.6,1.2l1.5.6,2,.6,1.9.8a5,5,0,0,1,1.5,1.4,4.1,4.1,0,0,1,.6,2.4,4,4,0,0,1-1.5,3.4A6.5,6.5,0,0,1,171.4,127Z" fill="#866356"/><path d="M186.5,127a7,7,0,0,1-4-.9,5.3,5.3,0,0,1-2.3-2.4,5.6,5.6,0,0,1-.5-3.4v-3a5.8,5.8,0,0,1,.5-3.4,5.1,5.1,0,0,1,2.3-2.3,8.9,8.9,0,0,1,3.9-.9,8.4,8.4,0,0,1,2.7.4,5.1,5.1,0,0,1,1.8.9,1.4,1.4,0,0,1,.6,1.1,1.5,1.5,0,0,1-.1.7c-.2.3-.3.6-.5.7a1.1,1.1,0,0,1-.8.3l-.7-.2-1-.6-1.7-.2a4.1,4.1,0,0,0-2.8.9,2,2,0,0,0-.2,2.6v3a2,2,0,0,0,.2,2.6,3.3,3.3,0,0,0,2.8,1,4.7,4.7,0,0,0,1.7-.3l1.1-.6.7-.2.8.2a1.3,1.3,0,0,1,.6.7,1.7,1.7,0,0,1,.1.7,1.4,1.4,0,0,1-.6,1.2,5,5,0,0,1-1.9,1A8.4,8.4,0,0,1,186.5,127Z" fill="#866356"/><path d="M200.8,127.1a6.5,6.5,0,0,1-3.6-1,7.2,7.2,0,0,1-3.5-5.7v-8.3l.9-.8a1.7,1.7,0,0,1,1.2-.4,2,2,0,0,1,1.3.4,2.6,2.6,0,0,1,.6.8v8.3a4.5,4.5,0,0,0,.3,1.7,3.7,3.7,0,0,0,1.2,1.3,3.1,3.1,0,0,0,1.8.5,3.4,3.4,0,0,0,1.7-.5,3.7,3.7,0,0,0,1.2-1.3c.3-.5-.2-1.7-.2-1.7V112a8.1,8.1,0,0,1,1.2-.8l1.2-.3a2.8,2.8,0,0,1,1.3.3c.3.2.3.8.3.8v8.4a5.7,5.7,0,0,1-.9,3.3,6.7,6.7,0,0,1-2.5,2.5A7.3,7.3,0,0,1,200.8,127.1Z" fill="#866356"/><path d="M218.5,127a7.1,7.1,0,0,1-4-.9,7,7,0,0,1-2.8-2.3,6.8,6.8,0,0,1-1-3.5v-3.1a6.7,6.7,0,0,1,1-3.3,7.9,7.9,0,0,1,2.5-2.3,7.2,7.2,0,0,1,6.8-.1,6.4,6.4,0,0,1,2.4,2.2,6.2,6.2,0,0,1,.9,3.2,3.4,3.4,0,0,1-.4,2,6.5,6.5,0,0,1-1.2,1.1h-8v.4a1.8,1.8,0,0,0,.8,2.6,4.5,4.5,0,0,0,3.1,1,5.8,5.8,0,0,0,1.9-.3l1.2-.6.9-.3.8.2a2.5,2.5,0,0,1,.4.7.7.7,0,0,1,.2.6c0,.4-.2.7-.7,1.1a3.5,3.5,0,0,1-1.9,1A7.2,7.2,0,0,1,218.5,127Zm-4.8-9h5.6l1-.2a.8.8,0,0,0,.2-.8,2.5,2.5,0,0,0-.4-1.7,3.2,3.2,0,0,0-1.2-1.1,3.4,3.4,0,0,0-1.8-.4,3.8,3.8,0,0,0-1.7.4,2.5,2.5,0,0,0-1.2,1.1,3,3,0,0,0-.5,1.6Z" fill="#866356"/><path d="M133.9,57.5s-6-10.3-15.5-3.4S132.7,79,132.7,79Z" fill="#8a7f97"/><path d="M132.6,57.4s6.4-9.9,15.7-2.6S132.7,79,132.7,79Z" fill="#8a7f97"/><path d="M4.5,96.8h0l.2-.5.6-1.2,1.2-2.3q.8-1.3,1.8-3.6c.8-1.4,2.4-5.3,2.4-5.3H8.5l-2.2.4-2.2.3-2,.5-.2-.4-.2-.4c0-.1.3-.1.8-.2l1.9-.3,2.5-.4L9.5,83l2-.3.8-.2.4.8-7.1,13,.7-.2,1.1-.2,1.2-.2,2.6-.5,1.7-.3,1.7-.4,1.7-.5.3.2v.3h0s.3.2.2.3h-.2V95h-.1l-2.7.6-2.9.6-2.8.6L5.6,98H5.5c0-.5-.1-.4-.1-.4s-.5-.1-.6-.3Z" fill="#8a7f97" stroke="#8a7f97" stroke-miterlimit="10" stroke-width="0.25"/><path d="M23.7,93.6c.4-.4.2-.8.1-1.2L23.4,91a7.8,7.8,0,0,0-.5-1.4,4.7,4.7,0,0,0-.5-1c-.4,1.5-.8,2.7-1.1,3.5a7.8,7.8,0,0,1-1.1,2c-.3.4-.6.6-.8.6a.7.7,0,0,1-.7-.2l-.6-.8-.3-.9V91.5a11,11,0,0,1,.2-1.8,17.7,17.7,0,0,1,.4-2,14.6,14.6,0,0,1,.7-1.9,10.9,10.9,0,0,1,.8-1.5,2.8,2.8,0,0,1,1.1-.8,1.9,1.9,0,0,1,1.3.2,2,2,0,0,1,.4,1.6l.6,2.2a8.4,8.4,0,0,0,.5,1.7l.6,1.7a6.9,6.9,0,0,1,.3,2.2v.4c.2.1.1.2-.2.5h-.8ZM21.5,85a.7.7,0,0,0-.6.1,2.7,2.7,0,0,0-.6,1l-.6,1.5c-.2.6-.3,1.2-.5,1.8a11.3,11.3,0,0,0-.3,1.8c-.1.6-.1.9-.2,1.3a.6.6,0,0,0,.4.7l.5-.3a3.1,3.1,0,0,0,.5-1l.6-1.4.5-1.5.3-1.1a1.9,1.9,0,0,0,.1-.8,1.5,1.5,0,0,0,.1-.7,1.7,1.7,0,0,0-.1-.7A1.7,1.7,0,0,0,21.5,85Z" fill="#8a7f97" stroke="#8a7f97" stroke-miterlimit="10" stroke-width="0.25"/><path d="M27.5,93c-.5-1.7-.9-3.4-1.4-5.1s-.9-3.4-1.4-5.3a.5.5,0,0,1,.4-.6h.7c.1.2.1.4.2.6a11.7,11.7,0,0,1,.5,1.1l.5,2c.2.9.6,1.9,1,3.1.1-.8.1-1.6.2-2.5a16.2,16.2,0,0,1,.1-2.2,4.4,4.4,0,0,1,.7-1.9,2.9,2.9,0,0,1,1.6-1.3,1.7,1.7,0,0,1,1.2.5,6.5,6.5,0,0,1,.9,1.6,9.7,9.7,0,0,1,.8,2.2l.6,2.2.3,1.9.3,1.2-.2.3a.2.2,0,0,1-.2.2h0l-.3.4c0-.1-.1-.4-.2-.8a9.4,9.4,0,0,0-.4-1.6c-.1-.5-.3-1.2-.4-1.8a10.5,10.5,0,0,1-.5-1.9c-.2-.6-.3-1.1-.4-1.5l-.2-.9-1-.7-.7.4a3.8,3.8,0,0,0-.6,1.3,10.5,10.5,0,0,0-.4,1.7l-.3,2c0,.7-.1,1.4-.1,2.1a9.1,9.1,0,0,1-.1,1.7c0,.5.1.9.1,1.2l-.2.3H27.5Z" fill="#8a7f97" stroke="#8a7f97" stroke-miterlimit="10" stroke-width="0.25"/><path d="M37.9,92c-.5-1.9-1.1-3.8-1.5-5.6s-.9-3.8-1.5-5.9c-.1-.3.1-.5.4-.5h.2c0,.1.1.1.1.2l.3.5.5,1.4c.1.5.4,1.2.6,2.1s.6,2.1,1,3.5c.1-1,.2-1.9.2-2.8a9.9,9.9,0,0,1,.3-2.4,3.8,3.8,0,0,1,.7-2.1,3.5,3.5,0,0,1,1.7-1.5,2,2,0,0,1,1.4.6,5.9,5.9,0,0,1,1,1.7,20.9,20.9,0,0,1,.8,2.3c.2,1,.4,1.8.6,2.5s.4,1.5.5,2.1a3.5,3.5,0,0,0,.3,1.4l-.2.3-.2.2h-.5l-.3-.4-.2-.9c-.1-.4-.2-.9-.4-1.5a13.3,13.3,0,0,0-.5-1.9c-.1-.6-.3-1.3-.4-1.8a7.5,7.5,0,0,1-.4-1.6c-.1-.4-.2-.7-.2-.8a2,2,0,0,0-1-.7,1,1,0,0,0-.7.4,3.4,3.4,0,0,0-.6,1.2,11.6,11.6,0,0,0-.4,1.8l-.3,2c0,.7-.1,1.4-.1,2S39,89,39,89.6a4.9,4.9,0,0,0,.1,1.2l-.2.3-.4.9Z" fill="#8a7f97" stroke="#8a7f97" stroke-miterlimit="10" stroke-width="0.25"/><path d="M46.5,84.1a4.3,4.3,0,0,1-.1-.5l-.3-.7a2.9,2.9,0,0,0-.2-.9l-.3-.8a1.9,1.9,0,0,1-.2-.8l-.7-.4v-.6l.9-.3.5.2.4.5a2.4,2.4,0,0,1,.2.8,2.9,2.9,0,0,1,.2.9c0,.3.1.5-.2.7V83a.7.7,0,0,1,.4.7,1.3,1.3,0,0,1,.1.6c.1.1.1.3.1.7h-.5A1.9,1.9,0,0,1,46.5,84.1Z" fill="#8a7f97" stroke="#8a7f97" stroke-miterlimit="10" stroke-width="0.25"/><path d="M52,88.6l.3-.3.8-.8.9-1.1a4.4,4.4,0,0,0,.8-1.1l.3-.7c0-.3-.2-.4-.6-.4l-1.1.3-.8.4-.6.4-.7.2a1.3,1.3,0,0,1-1.2-.3,2.6,2.6,0,0,1-.6-1.3,5,5,0,0,1,.1-1.7,4.4,4.4,0,0,1,.8-1.5,3.4,3.4,0,0,1,1.2-1.2,3.4,3.4,0,0,1,1.5-.6c.3,0,.5-.1.6,0l.3.3a.7.7,0,0,1-.1.5l-.4.4h-.6s-.8-.4-1.2-.2a8.3,8.3,0,0,0-.8,1.2,3.4,3.4,0,0,0-.5,1.4,2.8,2.8,0,0,0,0,1.3V84h1l.8-.3.7-.4.7-.4h1.2l.4.3.4.4.3.4a1.1,1.1,0,0,1,0,.8,3.6,3.6,0,0,1-.4.9,2.4,2.4,0,0,1-.6,1.1,4.4,4.4,0,0,1-.8,1.1l-.8.8a1.1,1.1,0,0,1-.9.4c-.1.1-.3,0-.4-.1S52,88.8,52,88.6Z" fill="#8a7f97" stroke="#8a7f97" stroke-miterlimit="10" stroke-width="0.25"/></g></g></g></g></svg>